<svg xmlns="http://www.w3.org/2000/svg" viewBox="0 0 307.02 407.25"><defs><style>.cls-1{fill:#95999f;}.cls-1,.cls-2{fill-rule:evenodd;}.cls-2{fill:#f6feff;}.cls-3{fill:none;stroke:#f6feff;stroke-linejoin:round;stroke-width:16.19px;}</style></defs><g id="Layer_2" data-name="Layer 2"><g id="Layer_1-2" data-name="Layer 1"><path class="cls-1" d="M79.23,60.39h0c0-21.72,14.88-39.33,33.23-39.33h0c8.81,0,17.26,4.14,23.49,11.52a43.26,43.26,0,0,1,9.73,27.81h0c0,21.72-14.87,39.33-33.22,39.33h0C94.11,99.72,79.23,82.11,79.23,60.39Z"/><path class="cls-2" d="M200.81,165.24H28.14V50.34H200.81Z"/><path class="cls-1" d="M179,131.72h-133V114.46H179Z"/><path class="cls-1" d="M179,101.79h-133V84.53H179Z"/><path class="cls-1" d="M242.42,407.23H16.27v-242H242.42Z"/><path class="cls-2" d="M298.67,407.23h-85V93.16h85Z"/><path class="cls-2" d="M16.27,407.23H.21V181.76H16.27Z"/><path class="cls-3" d="M8.1,181.87a26.55,26.55,0,0,1,6.49-17.62A21,21,0,0,1,30.25,157h0"/><path class="cls-2" d="M56.06,176.59a8,8,0,0,0-8,8v222.6H64.09V184.62A8,8,0,0,0,56.06,176.59Z"/><path class="cls-2" d="M94.35,188.6a8,8,0,0,0-8,8h0V407.25h16.06V196.63A8,8,0,0,0,94.35,188.6Z"/><path class="cls-2" d="M140.68,210.67a8,8,0,0,0-16.07,0h0V407.25h16.07V210.67Z"/><path class="cls-2" d="M179,223.47a8,8,0,1,0-16.06,0h0V407.25H179V223.47Z"/><path class="cls-2" d="M238.12,47.44A14.3,14.3,0,0,0,213.7,57.56V157.81h28.61V57.56A14.35,14.35,0,0,0,238.12,47.44Z"/><path class="cls-2" d="M294.61,4.06a13.82,13.82,0,0,0-20,.46V80.87h-7V111h31.1V13.86A13.85,13.85,0,0,0,294.61,4.06Z"/><path class="cls-2" d="M266.13,25.54a13.94,13.94,0,0,0-19.82.09v79h-4v28.55h27.91V35.41A14,14,0,0,0,266.13,25.54Z"/><path class="cls-1" d="M307,220.88H268.41V203.62H307Z"/><path class="cls-1" d="M307,186.67H268.41V169.41H307Z"/><path class="cls-1" d="M307,289.31H268.41V272.05H307Z"/><path class="cls-1" d="M307,323.53H268.41V306.27H307Z"/><path class="cls-1" d="M307,255.1H268.41V237.84H307Z"/></g></g></svg>