<svg xmlns="http://www.w3.org/2000/svg" viewBox="0 0 195.02 403.37"><defs><style>.cls-1{fill:#95999f;}.cls-1,.cls-2,.cls-3{fill-rule:evenodd;}.cls-2{fill:#f6feff;}.cls-3{fill:#3a577d;}</style></defs><g id="Layer_2" data-name="Layer 2"><g id="Layer_1-2" data-name="Layer 1"><path class="cls-1" d="M30,36.23h0C30,16.22,43.66,0,60.56,0h0c8.12,0,15.91,3.82,21.65,10.61a39.87,39.87,0,0,1,9,25.62h0c0,20-13.7,36.23-30.61,36.23h0C43.66,72.46,30,56.24,30,36.23Z"/><path class="cls-1" d="M46.6,110.27H149.18v20.92H46.6Z"/><path class="cls-1" d="M69.71,84.79h67.91v20.92H69.71Z"/><path class="cls-1" d="M33.92,59.3h92.15V80.22H33.92Z"/><path class="cls-1" d="M58.16,135.76H160.73v20.92H58.16Z"/><path class="cls-1" d="M69.71,161.24H172.29v20.92H69.71Z"/><path class="cls-2" d="M81.27,186.73H183.84v20.92H81.27Z"/><path class="cls-1" d="M126.07,256.46h69v38.72h-69Z"/><path class="cls-1" d="M126.07,311.4h69v38.71h-69Z"/><path class="cls-2" d="M195,366.34H183.84v-179h-91V54.73h21.67V33.82H9v41.4c.35,0,.71,0,1.06,0A29.36,29.36,0,0,1,31.71,85a34.88,34.88,0,0,1,9,23.58C40.68,127,27,141.9,10.07,141.9l-1.06,0v16.57a29.55,29.55,0,0,1,19.23,9.65,35,35,0,0,1,9,23.59c0,17.53-12.42,31.9-28.2,33.24V403.37H195Z"/><path class="cls-3" d="M0,255.12H126.44v4.79H0Z"/><path class="cls-3" d="M0,274.57H126.44v4.78H0Z"/><path class="cls-3" d="M0,294H126.44v4.79H0Z"/><path class="cls-3" d="M0,313.45H126.44v4.79H0Z"/></g></g></svg>