<svg xmlns="http://www.w3.org/2000/svg" viewBox="0 0 257.29 235.95"><defs><style>.cls-1{fill:#f6feff;}.cls-1,.cls-2,.cls-3{fill-rule:evenodd;}.cls-2{fill:#95999f;}.cls-3{fill:#3a577d;}</style></defs><g id="Layer_2" data-name="Layer 2"><g id="Layer_1-2" data-name="Layer 1"><path class="cls-1" d="M183.05,24h38.7v83.66h-38.7Z"/><path class="cls-1" d="M183,26.6h0A19.35,19.35,0,0,1,202.39,7.25h0A19.34,19.34,0,0,1,221.73,26.6h0A19.34,19.34,0,0,1,202.39,46h0A19.35,19.35,0,0,1,183,26.6Z"/><path class="cls-2" d="M0,88.9H0C0,73.31,11.71,60.66,26.15,60.66h0a25.21,25.21,0,0,1,18.48,8.27,29.41,29.41,0,0,1,7.66,20h0c0,15.6-11.71,28.24-26.14,28.24h0C11.71,117.14,0,104.5,0,88.9Z"/><path class="cls-1" d="M51.25,36.26h0a8,8,0,0,1,8-8h58.22a8,8,0,0,1,8,8V68.33a8,8,0,0,1-8,8H59.27a8,8,0,0,1-8-8Z"/><path class="cls-2" d="M28.24,60.66H237.43v167.5H28.24Z"/><path class="cls-1" d="M5.23,155.08H174.68V236H5.23Z"/><path class="cls-1" d="M160,102.5h93.08V235.94H160Z"/><path class="cls-1" d="M75.31,0h26.14V28.24H75.31Z"/><path class="cls-3" d="M28.24,125.71h110.5v4.18H28.24Z"/><path class="cls-3" d="M28.24,142.7h110.5v4.18H28.24Z"/><path class="cls-3" d="M183,146.88h74.25v4.19H183Z"/><path class="cls-3" d="M183,163.87h74.25v4.19H183Z"/><path class="cls-3" d="M183,180.86h74.25v4.19H183Z"/><path class="cls-3" d="M183,197.85h74.25V202H183Z"/></g></g></svg>