<svg xmlns="http://www.w3.org/2000/svg" viewBox="0 0 298.46 274.82"><defs><style>.cls-1{fill:#95999f;}.cls-1,.cls-2,.cls-4{fill-rule:evenodd;}.cls-2{fill:#f6feff;}.cls-3{fill:none;stroke:#f6feff;stroke-linejoin:round;stroke-width:15.97px;}.cls-4{fill:#3a577d;}</style></defs><g id="Layer_2" data-name="Layer 2"><g id="Layer_1-2" data-name="Layer 1"><path class="cls-1" d="M167.82,78.18V14.38h21.52v63.8Z"/><path class="cls-1" d="M141.58,85.37V21.56h21.53V85.37Z"/><path class="cls-1" d="M115.35,92.56V28.75h21.53V92.56Z"/><path class="cls-1" d="M194.05,71V7.19h21.52V71Z"/><path class="cls-1" d="M220.28,63.81V0h21.53V63.81Z"/><path class="cls-2" d="M93.37,35.21H270.53V150.1H93.37Z"/><path class="cls-1" d="M119.7,99.33H296.87v17.26H119.7Z"/><path class="cls-1" d="M119.7,69.4H296.87V86.66H119.7Z"/><path class="cls-1" d="M56.26,150.12H287.41v124.7H56.26Z"/><path class="cls-2" d="M0,171.23H0C0,118.3,19,75.39,42.49,75.39h0c11.27,0,22.07,10.1,30,28.07S85,145.81,85,171.23h0c0,52.93-19,95.84-42.49,95.84h0C19,267.07,0,224.16,0,171.23Z"/><path class="cls-2" d="M0,172.35H85V274.82H0Z"/><path class="cls-2" d="M282.4,166.23h16.06V274.8H282.4Z"/><path class="cls-3" d="M269.43,142.16h0a19.55,19.55,0,0,1,14.85,7.23,27,27,0,0,1,6.15,17.43"/><path class="cls-2" d="M124.49,166.18h16.06V274.8H124.49Z"/><path class="cls-2" d="M124.14,168.16h0a8.38,8.38,0,0,1,8.38-8.37h0a8.38,8.38,0,0,1,8.38,8.37h0a8.38,8.38,0,0,1-8.38,8.38h0A8.38,8.38,0,0,1,124.14,168.16Z"/><path class="cls-2" d="M154.63,166.18h16.06V274.8H154.63Z"/><path class="cls-2" d="M154.28,168.16h0a8.38,8.38,0,0,1,8.38-8.37h0a8.36,8.36,0,0,1,8.38,8.37h0a8.38,8.38,0,0,1-8.38,8.38h0A8.38,8.38,0,0,1,154.28,168.16Z"/><path class="cls-2" d="M184.77,166.18h16.06V274.8H184.77Z"/><path class="cls-2" d="M184.43,166.91h0a8.37,8.37,0,0,1,8.37-8.37h0a8.36,8.36,0,0,1,8.38,8.37h0a8.38,8.38,0,0,1-8.38,8.38h0A8.38,8.38,0,0,1,184.43,166.91Z"/><path class="cls-4" d="M54.6,70.6v85.28H49.81V70.6Z"/><path class="cls-4" d="M35.15,70.6v85.28H30.37V70.6Z"/></g></g></svg>