<svg xmlns="http://www.w3.org/2000/svg" viewBox="0 0 108.56 538.8"><defs><style>.cls-1{fill:#95999f;}.cls-1,.cls-2,.cls-3{fill-rule:evenodd;}.cls-2{fill:#f6feff;}.cls-3{fill:#3a577d;}</style></defs><g id="Layer_2" data-name="Layer 2"><g id="Layer_1-2" data-name="Layer 1"><path class="cls-1" d="M8.76,62.73H73.83v157H8.76Z"/><path class="cls-2" d="M1.2,219.69H107.72V538.8H1.2Z"/><path class="cls-2" d="M16.74,105.5h49.1V283.86H16.74Z"/><path class="cls-2" d="M65.85,153.88H77V255.17H65.85Z"/><path class="cls-2" d="M65.85,154.63h0A5.59,5.59,0,0,1,71.44,149h0A5.6,5.6,0,0,1,77,154.63h0a5.6,5.6,0,0,1-5.59,5.6h0A5.6,5.6,0,0,1,65.85,154.63Z"/><path class="cls-2" d="M75.84,174.47H87v101.3H75.84Z"/><path class="cls-2" d="M75.84,175.23h0a5.59,5.59,0,0,1,5.59-5.59h0A5.6,5.6,0,0,1,87,175.23h0a5.59,5.59,0,0,1-5.59,5.59h0A5.59,5.59,0,0,1,75.84,175.23Z"/><path class="cls-2" d="M85.83,202.16H97v101.3H85.83Z"/><path class="cls-2" d="M85.83,202.92h0a5.59,5.59,0,0,1,5.59-5.59h0A5.6,5.6,0,0,1,97,202.92h0a5.59,5.59,0,0,1-5.59,5.59h0A5.59,5.59,0,0,1,85.83,202.92Z"/><path class="cls-1" d="M9.57,255.45H98.2v29.92H9.57Z"/><path class="cls-1" d="M10.14,298.24H98.77v29.92H10.14Z"/><path class="cls-1" d="M10.14,341H98.77V371H10.14Z"/><path class="cls-3" d="M0,383.83H19.15V388H0Z"/><path class="cls-3" d="M0,400.82H19.15V405H0Z"/><path class="cls-3" d="M0,417.81H19.15V422H0Z"/><path class="cls-3" d="M0,434.8H19.15V439H0Z"/><path class="cls-3" d="M89.42,383.83h19.14V388H89.42Z"/><path class="cls-3" d="M89.42,400.82h19.14V405H89.42Z"/><path class="cls-3" d="M89.42,417.81h19.14V422H89.42Z"/><path class="cls-3" d="M89.42,434.8h19.14V439H89.42Z"/><path class="cls-1" d="M35.7,0H46.88V98.65H35.7Z"/></g></g></svg>